# xmcd CD database file
#
# Track frame offsets:
#	150
#	24432
#	46649
#	71916
#	92773
#	111148
#	117799
#	139887
#	154105
#	175006
#	182603
#	206057
#	250879
#	277837
#	296122
#	324830
#
# Disc length: 4668 seconds
#
# Revision: 0
# Processed by: cddbd v1.5.2PL0 Copyright (c) Steve Scherf et al.
# Submitted via: CDex 1.51
#
DISCID=dd123a10
DTITLE=B.B. KING - Ladies - Gentlemen...(The Thrill Is Gone 1969-1971)
DYEAR=2012
DGENRE=Blues
TTITLE0=The Thrill Is Done
TTITLE1=Confessin' The Blues
TTITLE2=So Excited
TTITLE3=No Good
TTITLE4=Go Underground
TTITLE5=Nobody Loves Me But My Mother
TTITLE6=Chains And Things
TTITLE7=Ask Me No Questions
TTITLE8=Hummingbird
TTITLE9=Everyday I Have The Blues
TTITLE10=How Blue Can You Ret(Live)
TTITLE11=Worry, Worry(Live)
TTITLE12=Sweet Sixteen(Live)
TTITLE13=Eyesight To The Blind(Live)
TTITLE14=Niji Baby(Live)
TTITLE15=The Thrill Is Gone(Live)
EXTD=YEAR: 2012
EXTT0=
EXTT1=
EXTT2=
EXTT3=
EXTT4=
EXTT5=
EXTT6=
EXTT7=
EXTT8=
EXTT9=
EXTT10=
EXTT11=
EXTT12=
EXTT13=
EXTT14=
EXTT15=
PLAYORDER=
